<svg width="40" height="40" viewBox="0 0 40 40" fill="none" xmlns="http://www.w3.org/2000/svg">
<rect x="40" y="40" width="40" height="40" rx="20" transform="rotate(180 40 40)" fill="#049BE5" fill-opacity="0.2"/>
<mask id="mask0_2_27" style="mask-type:alpha" maskUnits="userSpaceOnUse" x="8" y="8" width="24" height="24">
<rect x="32" y="32" width="24" height="24" transform="rotate(180 32 32)" fill="#D9D9D9"/>
</mask>
<g mask="url(#mask0_2_27)">
<path d="M19.9985 14.9996C19.7152 14.9996 19.4777 15.0955 19.286 15.2871C19.0944 15.4788 18.9985 15.7163 18.9985 15.9996C18.9985 16.283 19.0944 16.5205 19.286 16.7121C19.4777 16.9038 19.7152 16.9996 19.9985 16.9996C20.2819 16.9996 20.5194 16.9038 20.711 16.7121C20.9027 16.5205 20.9985 16.283 20.9985 15.9996C20.9985 15.7163 20.9027 15.4788 20.711 15.2871C20.5194 15.0955 20.2819 14.9996 19.9985 14.9996ZM20.9985 18.9996L18.9985 18.9996L18.9985 24.9996L20.9985 24.9996L20.9985 18.9996ZM19.9985 9.99963C21.3819 9.99963 22.6819 10.2621 23.8985 10.7871C25.1152 11.3121 26.1735 12.0246 27.0735 12.9246C27.9735 13.8246 28.686 14.883 29.211 16.0996C29.736 17.3163 29.9985 18.6163 29.9985 19.9996C29.9985 21.383 29.736 22.683 29.211 23.8996C28.686 25.1163 27.9735 26.1746 27.0735 27.0746C26.1735 27.9746 25.1152 28.6871 23.8985 29.2121C22.6819 29.7371 21.3819 29.9996 19.9985 29.9996C18.6152 29.9996 17.3152 29.7371 16.0985 29.2121C14.8819 28.6871 13.8235 27.9746 12.9235 27.0746C12.0235 26.1746 11.311 25.1163 10.786 23.8996C10.261 22.683 9.99853 21.383 9.99853 19.9996C9.99853 18.6163 10.261 17.3163 10.786 16.0996C11.311 14.883 12.0235 13.8246 12.9235 12.9246C13.8235 12.0246 14.8819 11.3121 16.0985 10.7871C17.3152 10.2621 18.6152 9.99963 19.9985 9.99963ZM19.9985 11.9996C17.7652 11.9996 15.8735 12.7746 14.3235 14.3246C12.7735 15.8746 11.9985 17.7663 11.9985 19.9996C11.9985 22.233 12.7735 24.1246 14.3235 25.6746C15.8735 27.2246 17.7652 27.9996 19.9985 27.9996C22.2319 27.9996 24.1235 27.2246 25.6735 25.6746C27.2235 24.1246 27.9985 22.233 27.9985 19.9996C27.9985 17.7663 27.2235 15.8746 25.6735 14.3246C24.1235 12.7746 22.2319 11.9996 19.9985 11.9996Z" fill="#049BE5"/>
</g>
</svg>
